<?xml version="1.0" encoding="UTF-8"?>
<!DOCTYPE svg PUBLIC "-//W3C//DTD SVG 1.1//EN" "http://www.w3.org/Graphics/SVG/1.1/DTD/svg11.dtd">
<!-- Creator: CorelDRAW 2019 (64-Bit) -->
<svg xmlns="http://www.w3.org/2000/svg" xml:space="preserve" width="101.886mm" height="75.8693mm" version="1.1" style="shape-rendering:geometricPrecision; text-rendering:geometricPrecision; image-rendering:optimizeQuality; fill-rule:evenodd; clip-rule:evenodd"
viewBox="0 0 6574.47 4895.65"
 xmlns:xlink="http://www.w3.org/1999/xlink">
 <defs>
  <style type="text/css">
   <![CDATA[
    .fil6 {fill:#ED6C53;fill-rule:nonzero}
    .fil2 {fill:#E3B344;fill-rule:nonzero}
    .fil5 {fill:#A25FA2;fill-rule:nonzero}
    .fil3 {fill:#08AD9A;fill-rule:nonzero}
    .fil4 {fill:#00A6D0;fill-rule:nonzero}
    .fil0 {fill:#36485A;fill-rule:nonzero}
    .fil1 {fill:#0069A8;fill-rule:nonzero}
    .fil8 {fill:black;fill-rule:nonzero}
    .fil7 {fill:#860B90;fill-rule:nonzero}
   ]]>
  </style>
 </defs>
 <g id="Layer_x0020_1">
  <metadata id="CorelCorpID_0Corel-Layer"/>
  <g id="_1848891308224">
   <path class="fil0" d="M2274.22 1899.6c0,-4.07 0.25,-8.1 0.3,-12.16l-1370.89 -456.96c0,0 -180.68,508.22 1095.49,609.84l-1027.75 -56.48c0,0 -42.66,395.3 1023.33,271.07 0,0 -479.68,142.19 -908.84,97.04 0,0 139.47,467.72 1020.52,116.37l-660.67 317.39c0,0 294.68,227.09 644.87,4.78l-260.87 209.77c0,0 379.72,163.6 616.86,-163.87l-172.87 435.47c0,0 234.22,44.12 457.3,-346.24l-110.77 345.74c0,0 203.31,22.6 293.68,-225.89 24.49,-67.4 48.94,-127 71.64,-178.55 -412.14,-128.39 -711.33,-512.91 -711.33,-967.32z"/>
   <path class="fil0" d="M4575.39 2038.62c1276.17,-101.62 1095.44,-609.86 1095.44,-609.86l-1366.85 455.62c0.09,5.08 0.41,10.13 0.41,15.23 0,455.51 -300.64,840.71 -714.29,968.19 22.36,50.94 46.4,109.7 70.5,175.96 90.33,248.5 293.65,225.91 293.65,225.91l-110.77 -345.76c223.08,390.37 457.33,346.26 457.33,346.26l-172.91 -435.5c237.16,327.5 616.88,163.87 616.88,163.87l-260.83 -209.72c350.18,222.26 644.84,-4.83 644.84,-4.83l-660.7 -317.39c881.1,351.35 1020.57,-116.37 1020.57,-116.37 -429.19,45.16 -908.87,-97.04 -908.87,-97.04 1066.01,124.25 1023.33,-271.07 1023.33,-271.07l-1027.72 56.5z"/>
   <path class="fil0" d="M2569.63 595.43c6.67,0 13.07,-0.97 19.21,-2.66l130.53 470.8c162.79,-111.59 359.71,-176.99 571.98,-176.99 212.22,0 409.14,65.37 571.89,176.91l130.51 -470.75c6.17,1.71 12.63,2.68 19.33,2.68 39.72,0 71.94,-32.19 71.94,-71.91 0,-39.74 -32.21,-71.94 -71.94,-71.94 -39.72,0 -71.91,32.19 -71.91,71.94 0,18.89 7.33,36.03 19.24,48.87l-145.78 135.6c-37.34,34.58 -97.98,7.67 -97.31,-43.25l4.71 -366.9c0.34,0 0.7,0.05 1.07,0.05 39.72,0 71.91,-32.21 71.91,-71.94 0,-39.7 -32.19,-71.91 -71.91,-71.91 -39.72,0 -71.94,32.21 -71.94,71.91 0,25.88 13.71,48.49 34.19,61.17l-175.44 285.3c-27.02,44.02 -93.95,33.21 -105.73,-17.21l-96.48 -413.3c31.82,-7.42 55.59,-35.9 55.59,-70 0,-39.72 -32.21,-71.91 -71.94,-71.91 -39.72,0 -71.94,32.19 -71.94,71.91 0,34.1 23.77,62.58 55.59,69.98l-96.58 413.32c-11.71,50.42 -78.61,61.23 -105.65,17.21l-175.5 -285.26c20.56,-12.65 34.28,-35.3 34.28,-61.21 0,-39.7 -32.19,-71.91 -71.91,-71.91 -39.75,0 -71.94,32.21 -71.94,71.91 0,39.72 32.19,71.94 71.94,71.94 0.29,0 0.59,-0.05 0.91,-0.05l4.73 366.9c0.75,50.93 -59.98,77.83 -97.2,43.25l-145.83 -135.58c11.92,-12.82 19.3,-29.98 19.3,-48.9 0,-39.74 -32.21,-71.94 -71.93,-71.94 -39.72,0 -71.92,32.19 -71.92,71.94 0,39.72 32.19,71.91 71.92,71.91z"/>
   <path class="fil1" d="M4195.96 1892.55c0,-140.98 -32.48,-274.49 -90.24,-393.52l-213.34 392.7 0.48 0.84 -235.33 407.59 446.97 -11.56c58.47,-119.72 91.46,-254.07 91.46,-396.04z"/>
   <polygon class="fil0" points="3528.16,2302.75 3764.97,1892.56 3528.16,1482.41 3054.53,1482.41 2817.73,1892.56 3054.53,2302.75 "/>
   <path class="fil2" d="M2478.23 1496.5c-58.55,119.69 -91.51,254.07 -91.51,396.05 0,140.97 32.46,274.49 90.22,393.56l213.39 -392.74 -0.48 -0.8 235.36 -407.65 -446.97 11.58z"/>
   <path class="fil3" d="M2990.16 1372.45l0.43 -0.79 29.36 0 1.23 -0.03 0 0.03 440.12 0 -233.49 -381.27c-284.06,19.83 -532.4,171.14 -684.18,393.59l446.54 -11.52z"/>
   <path class="fil4" d="M3591.17 1371.66l0.94 0 235.38 407.61 213.34 -392.74c-151.1,-223.09 -399.1,-375.15 -683.03,-395.89l233.38 381.02z"/>
   <path class="fil5" d="M3592.6 2412.63l-0.5 0.84 -470.66 0 233.44 381.22c284.05,-19.85 532.38,-171.18 684.17,-393.62l-446.45 11.56z"/>
   <path class="fil6" d="M2991.55 2413.47l-0.96 0 -235.36 -407.63 -213.39 392.73c151.08,223.05 399.1,375.18 683,395.9l-233.3 -381z"/>
  </g>
  <path class="fil7" d="M2274.64 3476.64c66.95,0 122.27,13.47 165.96,40.42 43.69,26.95 75.53,61.65 95.53,104.11 20,42.46 28.58,89.82 25.72,142.08 -2.86,52.25 -17.14,103.29 -42.87,153.1 -25.72,49.81 -62.67,95.94 -110.85,138.4 -48.18,42.46 -107.37,74.71 -177.59,96.76 -8.98,3.27 -15.52,0.82 -19.6,-7.35 -4.9,-8.16 -4.08,-15.51 2.45,-22.04 32.66,-30.21 61.86,-63.69 87.58,-100.44 25.72,-36.74 46.34,-73.69 61.85,-110.84 15.51,-37.15 25.31,-72.67 29.39,-106.56 4.08,-33.88 0.82,-63.48 -9.8,-88.8 -10.61,-25.31 -29.39,-44.5 -56.34,-57.56 -26.95,-13.07 -63.28,-17.14 -109.01,-12.25 -41.65,4.9 -79.21,15.11 -112.68,30.62 -33.48,15.51 -62.46,34.3 -86.96,56.34 -24.49,22.05 -44.7,46.34 -60.63,72.88 -15.92,26.53 -27.55,53.07 -34.9,79.61 -7.35,26.53 -10.21,51.85 -8.58,75.94 1.63,24.09 7.76,44.7 18.37,61.85 -46.54,0 -81.45,-13.47 -104.72,-40.42 -23.28,-26.94 -35.12,-60.62 -35.52,-101.04 -0.41,-40.42 10,-84.31 31.23,-131.66 21.23,-47.36 52.46,-91.25 93.7,-131.67 41.23,-40.42 91.85,-74.1 151.87,-101.04 60.02,-26.95 128.81,-40.42 206.38,-40.42zm-324.57 901.45c2.45,-20.42 6.33,-46.34 11.64,-77.77 5.3,-31.44 11.63,-65.73 18.98,-102.88 7.34,-37.15 15.51,-76.14 24.49,-116.97 8.98,-40.83 17.96,-80.63 26.95,-119.41 8.98,-38.79 17.96,-75.74 26.94,-110.85 8.98,-35.11 17.15,-65.73 24.5,-91.86 20.41,0.82 41.23,2.86 62.46,6.12 17.96,3.27 37.15,8.58 57.56,15.93 20.41,7.35 39.6,17.96 57.56,31.84 -16.33,36.74 -31.44,72.26 -45.32,106.55 -13.88,34.3 -28.17,73.9 -42.87,118.81 -14.7,44.9 -30.42,98.8 -47.16,161.67 -16.74,62.87 -36.13,140.85 -58.18,233.93 -21.23,-4.08 -39.39,-9.39 -54.5,-15.92 -15.11,-6.54 -27.15,-12.66 -36.14,-18.38 -10.61,-6.53 -19.6,-13.47 -26.95,-20.82zm723.85 -618.52c-8.98,-2.45 -15.72,-7.35 -20.21,-14.7 -4.49,-7.34 -5.92,-15.51 -4.28,-24.49 8.98,-40.01 17.56,-73.08 25.72,-99.2 8.16,-26.13 16.74,-51.85 25.72,-77.16 26.95,-0.82 48.79,1.23 65.53,6.12 16.74,4.9 29.6,10.61 38.58,17.14 10.61,7.35 18.78,15.51 24.49,24.49 -11.43,36.75 -20.21,66.35 -26.33,88.8 -6.12,22.46 -12.86,43.89 -20.21,64.3 -4.08,13.89 -12.25,23.89 -24.49,30.01 -12.25,6.12 -24.09,6.32 -35.52,0.61 -7.34,-4.08 -15.71,-7.35 -25.11,-9.8 -9.39,-2.45 -17.35,-4.49 -23.88,-6.12zm-63.69 589.12c-18.78,-1.63 -34.3,-5.51 -46.54,-11.63 -12.25,-6.12 -22.04,-12.45 -29.39,-18.98 -8.98,-8.16 -15.93,-16.74 -20.82,-25.72 13.07,-80.02 29.19,-158.82 48.38,-236.38 19.18,-77.57 40.62,-153.5 64.3,-227.81 4.08,0 11.63,0.82 22.66,2.45 11.02,1.63 23.27,4.7 36.74,9.19 13.47,4.49 26.74,10.41 39.81,17.76 13.07,7.35 23.68,16.33 31.84,26.95 -14.7,33.48 -27.35,63.69 -37.97,90.64 -10.61,26.94 -20.21,53.27 -28.78,78.99 -8.58,25.72 -16.74,52.05 -24.5,79 -7.76,26.95 -16.13,57.56 -25.11,91.86 -0.81,10.61 0,17.55 2.45,20.82 2.45,3.27 6.12,3.68 11.02,1.23 4.9,-2.45 10.41,-7.35 16.54,-14.7 6.12,-7.34 12.45,-15.92 18.98,-25.72 8.98,-13.06 18.16,-27.55 27.55,-43.48 9.4,-15.92 18.37,-31.23 26.95,-45.93 8.58,-14.69 15.93,-28.17 22.05,-40.41 6.12,-12.25 10.41,-21.23 12.86,-26.95 4.9,0.81 9.8,1.84 14.69,3.06 4.9,1.23 9.4,4.08 13.47,8.58 4.08,4.49 7.15,10.82 9.19,18.98 2.04,8.16 2.25,19.6 0.61,34.3 -18.78,31.84 -36.14,62.46 -52.05,91.85 -15.93,29.4 -31.84,54.91 -47.77,76.55 -15.92,21.64 -32.66,38.58 -50.22,50.83 -17.55,12.25 -36.54,17.14 -56.95,14.69zm443.37 0c-4.9,1.63 -9.39,1.63 -13.47,0 -10.61,0 -20.21,-4.08 -28.79,-12.25 -8.57,-8.16 -16.33,-19.19 -23.27,-33.07 -6.94,-13.88 -13.47,-30.21 -19.6,-48.99 -6.12,-18.78 -11.63,-39.19 -16.53,-61.24l-128.6 156.77c-7.35,-2.45 -14.29,-6.12 -20.82,-11.02 -5.72,-4.08 -11.23,-9.8 -16.53,-17.15 -5.31,-7.34 -9.19,-17.14 -11.64,-29.39l154.32 -204.54c-4.08,-20.42 -8.16,-40.42 -12.25,-60.02 -4.08,-19.6 -8.57,-38.78 -13.47,-57.56 -1.63,-4.08 -4.49,-6.12 -8.57,-6.12 -4.9,0 -7.76,1.63 -8.58,4.9 -9.8,23.68 -20,47.36 -30.62,71.04 -10.61,23.68 -22.86,48.58 -36.74,74.72 -12.25,0 -21.64,-2.25 -28.17,-6.74 -6.53,-4.49 -11.43,-9.19 -14.7,-14.09 -3.27,-5.72 -5.3,-12.25 -6.12,-19.6 14.7,-30.21 26.54,-59.81 35.52,-88.8 8.98,-28.99 16.74,-59 23.27,-90.02 4.9,-19.6 12.86,-34.09 23.88,-43.48 11.03,-9.39 22.25,-15.72 33.68,-18.98 13.07,-3.27 27.35,-4.49 42.87,-3.68 23.68,1.63 42.87,14.91 57.56,39.81 14.7,24.9 27.35,55.73 37.97,92.47l100.44 -133.51c10.61,3.27 20.82,7.35 30.62,12.25 8.98,4.08 17.76,9.8 26.33,17.14 8.58,7.35 16.13,16.33 22.66,26.95l-154.32 188.61c5.72,28.58 11.43,56.75 17.15,84.51 5.72,27.76 11.84,53.89 18.37,78.39 1.63,2.45 3.67,4.49 6.12,6.12 3.27,0.81 6.12,0 8.58,-2.45 8.16,-8.16 18.37,-21.23 30.62,-39.19 12.25,-17.96 24.29,-36.95 36.13,-56.95 11.84,-20 22.46,-38.78 31.84,-56.34 9.39,-17.56 15.72,-30.01 18.98,-37.35 4.08,0.81 8.78,1.84 14.09,3.06 5.31,1.23 10,4.08 14.09,8.58 4.08,4.49 7.14,10.82 9.18,18.98 2.05,8.16 1.84,19.6 -0.61,34.3 -17.96,31.02 -34.91,61.04 -50.83,90.02 -15.92,28.99 -31.64,54.3 -47.15,75.94 -15.51,21.64 -31.64,38.78 -48.38,51.44 -16.74,12.65 -34.9,18.16 -54.5,16.53zm233.94 1.23c-34.3,-0.81 -60.02,-12.04 -77.16,-33.68 -17.15,-21.64 -27.77,-48.99 -31.84,-82.06 -4.08,-33.07 -2.86,-69.61 3.67,-109.62 6.53,-40.01 15.93,-79.2 28.17,-117.58 12.25,-38.38 26.53,-73.49 42.87,-105.33 16.33,-31.84 32.66,-56.34 48.99,-73.49 57.98,-6.53 102.27,-2.04 132.89,13.47 30.62,15.52 50.83,36.34 60.62,62.47 9.8,26.13 10.41,55.11 1.84,86.96 -8.58,31.84 -23.07,61.24 -43.48,88.18 -20.42,26.95 -45.52,48.79 -75.33,65.53 -29.8,16.74 -61.44,22.66 -94.92,17.76 -1.63,8.17 -2.65,16.54 -3.06,25.11 -0.41,8.58 0.61,16.74 3.06,24.5 2.45,7.76 6.74,14.49 12.86,20.2 6.12,5.72 15.31,9.8 27.56,12.25 8.16,1.64 17.55,1.64 28.17,0 10.62,-1.63 21.24,-4.48 31.85,-8.57 10.61,-4.08 20.82,-9.39 30.62,-15.93 9.8,-6.53 18.78,-13.47 26.95,-20.82 13.88,-13.07 26.13,-25.52 36.74,-37.36 10.61,-11.83 20.21,-23.48 28.78,-34.9 8.58,-11.43 16.54,-23.28 23.89,-35.52 7.34,-12.25 14.29,-25.31 20.82,-39.19 13.89,0.82 24.91,7.56 33.07,20.21 8.17,12.66 10.21,26.74 6.12,42.26 -14.69,25.31 -32.46,51.64 -53.27,78.99 -20.82,27.35 -43.28,52.26 -67.37,74.72 -24.09,22.46 -49.6,41.23 -76.55,56.34 -26.95,15.11 -54.3,23.48 -82.06,25.11l-24.49 0zm14.69 -258.43c22.86,-7.34 42.67,-17.55 59.4,-30.62 16.74,-13.06 28.99,-26.95 36.74,-41.64 7.76,-14.7 11.03,-28.99 9.8,-42.87 -1.23,-13.88 -7.96,-25.31 -20.21,-34.29 -21.23,27.76 -38.58,53.89 -52.05,78.38 -13.47,24.5 -24.7,48.18 -33.68,71.04zm204.54 202.09c8.16,-63.69 18.58,-131.46 31.23,-203.31 12.65,-71.86 26.54,-143.71 41.65,-215.57 15.11,-71.85 31.43,-142.08 48.99,-210.66 17.56,-68.59 35.32,-131.06 53.28,-187.39 20.41,0.82 40.83,3.27 61.24,7.35 17.14,4.08 35.32,9.8 54.51,17.14 19.18,7.35 36.13,17.96 50.83,31.84 -10.61,23.68 -22.05,50.63 -34.3,80.84 -10.61,26.13 -22.66,57.16 -36.13,93.08 -13.47,35.93 -27.56,76.35 -42.26,121.25 -20.41,62.06 -39.6,125.34 -57.56,189.85 -17.96,64.5 -33.88,129.83 -47.76,195.96 -2.45,18.78 -0.82,28.79 4.9,30.01 5.72,1.22 13.47,-3.07 23.27,-12.86 9.8,-9.8 20.62,-23.48 32.46,-41.03 11.84,-17.56 23.48,-35.72 34.91,-54.51 11.43,-18.78 21.43,-36.13 30.01,-52.05 8.58,-15.93 14.49,-27.15 17.76,-33.68 4.9,0.81 9.8,1.84 14.7,3.06 4.9,1.23 9.39,4.08 13.47,8.58 4.08,4.49 7.14,10.82 9.19,18.98 2.04,8.16 2.25,19.6 0.61,34.3 -18.78,31.84 -36.13,62.46 -52.05,91.85 -15.93,29.4 -31.84,55.12 -47.77,77.16 -15.93,22.05 -32.46,39.19 -49.6,51.44 -17.15,12.25 -35.93,17.15 -56.34,14.7 -21.23,-4.08 -38.17,-9.39 -50.83,-15.92 -12.65,-6.54 -22.66,-13.07 -30.01,-19.6 -8.98,-7.35 -15.11,-14.29 -18.37,-20.82zm553.61 -75.94c-1.63,17.14 0.41,25.92 6.12,26.33 5.72,0.41 13.47,-4.49 23.27,-14.7 9.8,-10.21 20.62,-24.09 32.46,-41.65 11.84,-17.55 23.48,-35.31 34.91,-53.27 11.43,-17.96 21.44,-34.91 30.01,-50.83 8.58,-15.93 14.49,-27.15 17.76,-33.68 4.08,0.81 8.78,1.84 14.09,3.06 5.31,1.23 10,4.08 14.09,8.58 4.08,4.49 7.14,10.82 9.19,18.98 2.04,8.16 1.83,19.6 -0.61,34.3 -18.78,31.84 -36.14,62.46 -52.05,91.85 -15.93,29.4 -31.84,55.12 -47.77,77.16 -15.92,22.05 -32.46,39.19 -49.6,51.44 -17.14,12.25 -35.93,17.15 -56.34,14.7 -31.03,-7.35 -53.69,-16.13 -67.98,-26.33 -14.29,-10.21 -23.48,-18.58 -27.55,-25.11 -13.07,12.25 -26.95,21.84 -41.65,28.79 -14.69,6.94 -28.17,12.04 -40.41,15.31 -14.7,4.08 -28.99,6.54 -42.87,7.35 -31.02,-4.9 -53.07,-23.68 -66.13,-56.34 -9.8,-24.49 -14.7,-54.51 -14.7,-90.02 0,-35.52 3.88,-72.26 11.63,-110.23 7.76,-37.97 18.37,-75.32 31.84,-112.06 13.47,-36.75 28.37,-69 44.7,-96.76 13.88,-24.5 28.17,-43.28 42.87,-56.35 28.58,0 51.65,3.07 69.21,9.19 17.55,6.12 32.04,12.45 43.48,18.98 12.25,8.98 22.04,18.37 29.39,28.17 0,-0.82 1.63,-9.4 4.9,-25.72 4.08,0 11.43,0.81 22.05,2.45 10.61,1.63 22.25,4.29 34.91,7.96 12.65,3.67 25.31,8.98 37.97,15.93 12.65,6.94 23.48,15.31 32.46,25.11 -8.17,25.31 -15.52,49.6 -22.05,72.87 -6.53,23.28 -12.65,46.14 -18.37,68.59 -5.72,22.45 -11.43,45.52 -17.14,69.2 -5.72,23.68 -11.43,48.99 -17.15,75.94l-4.9 20.82zm-184.94 25.72c13.88,0 27.35,-7.35 40.42,-22.05 13.06,-14.7 24.29,-32.86 33.68,-54.5 9.39,-21.64 16.94,-45.52 22.66,-71.65 5.72,-26.13 8.57,-50.42 8.57,-72.88 0,-22.46 -3.06,-41.64 -9.18,-57.56 -6.12,-15.92 -16.13,-25.11 -30.01,-27.56 -19.6,21.23 -36.75,49 -51.44,83.29 -14.7,34.3 -25.31,67.98 -31.84,101.05 -6.54,33.07 -8.78,61.64 -6.74,85.73 2.04,24.09 10,36.14 23.88,36.14zm202.09 -556.06l188.62 0c9.8,-38.37 19.6,-75.32 29.39,-110.84 9.8,-35.52 19.6,-68.79 29.4,-99.82 20.41,0.82 40.83,3.27 61.24,7.35 17.14,4.08 35.32,9.8 54.51,17.14 19.18,7.35 36.13,17.96 50.83,31.84 -4.9,11.43 -10.61,24.91 -17.15,40.42 -5.71,13.88 -12.45,30.42 -20.2,49.6 -7.76,19.19 -16.13,40.63 -25.11,64.3l96.76 0c17.96,0 33.28,7.56 45.93,22.66 12.66,15.11 18.98,33.27 18.98,54.5l0 14.7 -194.74 0c-3.27,8.16 -6.12,16.13 -8.58,23.88 -2.45,7.76 -5.31,16.13 -8.58,25.11 -20.41,62.06 -39.6,125.34 -57.56,189.85 -17.96,64.5 -33.88,129.83 -47.76,195.96 -2.45,18.78 -0.82,28.79 4.9,30.01 5.72,1.22 13.47,-3.07 23.27,-12.86 9.8,-9.8 20.62,-23.48 32.46,-41.03 11.84,-17.56 23.48,-35.72 34.91,-54.51 11.43,-18.78 21.43,-36.13 30.01,-52.05 8.58,-15.93 14.49,-27.15 17.76,-33.68 4.9,0.81 9.8,1.84 14.7,3.06 4.9,1.23 9.39,4.08 13.47,8.58 4.08,4.49 7.14,10.82 9.19,18.98 2.04,8.16 2.25,19.6 0.61,34.3 -18.78,31.84 -36.13,62.46 -52.05,91.85 -15.93,29.4 -31.84,55.12 -47.77,77.16 -15.93,22.05 -32.46,39.19 -49.6,51.44 -17.15,12.25 -35.93,17.15 -56.34,14.7 -21.23,-4.08 -38.17,-9.39 -50.83,-15.92 -12.65,-6.54 -22.66,-13.07 -30.01,-19.6 -8.98,-7.35 -15.11,-14.7 -18.37,-22.05 9.8,-77.57 22.86,-160.85 39.19,-249.86 16.33,-89 34.7,-176.78 55.11,-263.33l-101.66 0c-17.96,0 -33.27,-7.76 -45.93,-23.27 -12.65,-15.52 -18.98,-33.89 -18.98,-55.12l0 -13.47zm398.06 662.61c-34.3,-0.81 -60.02,-12.04 -77.16,-33.68 -17.15,-21.64 -27.77,-48.99 -31.84,-82.06 -4.08,-33.07 -2.86,-69.61 3.67,-109.62 6.53,-40.01 15.93,-79.2 28.17,-117.58 12.25,-38.38 26.53,-73.49 42.87,-105.33 16.33,-31.84 32.66,-56.34 48.99,-73.49 57.98,-6.53 102.27,-2.04 132.89,13.47 30.62,15.52 50.83,36.34 60.62,62.47 9.8,26.13 10.41,55.11 1.84,86.96 -8.58,31.84 -23.07,61.24 -43.48,88.18 -20.42,26.95 -45.52,48.79 -75.33,65.53 -29.8,16.74 -61.44,22.66 -94.92,17.76 -1.63,8.17 -2.65,16.54 -3.06,25.11 -0.41,8.58 0.61,16.74 3.06,24.5 2.45,7.76 6.74,14.49 12.86,20.2 6.12,5.72 15.31,9.8 27.56,12.25 8.16,1.64 17.55,1.64 28.17,0 10.62,-1.63 21.24,-4.48 31.85,-8.57 10.61,-4.08 20.82,-9.39 30.62,-15.93 9.8,-6.53 18.78,-13.47 26.95,-20.82 13.88,-13.07 26.13,-25.52 36.74,-37.36 10.61,-11.83 20.21,-23.48 28.78,-34.9 8.58,-11.43 16.54,-23.28 23.89,-35.52 7.34,-12.25 14.29,-25.31 20.82,-39.19 13.89,0.82 24.91,7.56 33.07,20.21 8.17,12.66 10.21,26.74 6.12,42.26 -14.69,25.31 -32.46,51.64 -53.27,78.99 -20.82,27.35 -43.28,52.26 -67.37,74.72 -24.09,22.46 -49.6,41.23 -76.55,56.34 -26.95,15.11 -54.3,23.48 -82.06,25.11l-24.49 0zm14.69 -258.43c22.86,-7.34 42.67,-17.55 59.4,-30.62 16.74,-13.06 28.99,-26.95 36.74,-41.64 7.76,-14.7 11.03,-28.99 9.8,-42.87 -1.23,-13.88 -7.96,-25.31 -20.21,-34.29 -21.23,27.76 -38.58,53.89 -52.05,78.38 -13.47,24.5 -24.7,48.18 -33.68,71.04z"/>
  <path class="fil8" d="M79.74 4648.11c16.8,0 31.43,2.77 43.89,8.3 12.46,5.54 22.01,13.47 28.66,23.81 6.65,10.34 9.97,22.62 9.97,36.83 0,14.03 -3.32,26.26 -9.97,36.69 -6.65,10.43 -16.2,18.41 -28.66,23.95 -12.46,5.54 -27.09,8.31 -43.89,8.31l-43.75 0 0 55.93 -35.99 0 0 -193.83 79.74 0zm-1.66 107.43c15.69,0 27.6,-3.32 35.72,-9.96 8.12,-6.65 12.18,-16.16 12.18,-28.52 0,-12.37 -4.07,-21.87 -12.18,-28.52 -8.12,-6.65 -20.03,-9.97 -35.72,-9.97l-42.09 0 0 76.97 42.09 0zm292.41 -107.43l0 193.83 -36 0 0 -83.07 -100.24 0 0 83.07 -35.99 0 0 -193.83 35.99 0 0 80.02 100.24 0 0 -80.02 36 0zm142.61 196.6c-19.75,0 -37.57,-4.29 -53.44,-12.87 -15.87,-8.59 -28.33,-20.49 -37.38,-35.72 -9.05,-15.23 -13.57,-32.26 -13.57,-51.09 0,-18.83 4.52,-35.86 13.57,-51.09 9.05,-15.23 21.51,-27.14 37.38,-35.72 15.87,-8.58 33.69,-12.88 53.44,-12.88 19.75,0 37.57,4.3 53.44,12.88 15.87,8.58 28.33,20.44 37.38,35.58 9.05,15.14 13.57,32.21 13.57,51.23 0,19.01 -4.52,36.09 -13.57,51.23 -9.05,15.13 -21.51,26.99 -37.38,35.58 -15.87,8.58 -33.69,12.87 -53.44,12.87zm0 -31.57c12.92,0 24.55,-2.9 34.89,-8.72 10.34,-5.81 18.46,-13.93 24.37,-24.37 5.91,-10.43 8.86,-22.11 8.86,-35.03 0,-12.92 -2.95,-24.6 -8.86,-35.03 -5.9,-10.43 -14.03,-18.55 -24.37,-24.37 -10.34,-5.81 -21.97,-8.72 -34.89,-8.72 -12.92,0 -24.55,2.91 -34.89,8.72 -10.34,5.81 -18.46,13.94 -24.37,24.37 -5.91,10.43 -8.86,22.11 -8.86,35.03 0,12.92 2.95,24.6 8.86,35.03 5.9,10.43 14.03,18.55 24.37,24.37 10.34,5.82 21.97,8.72 34.89,8.72zm179.15 -134.57l-64.24 0 0 -30.46 164.47 0 0 30.46 -64.24 0 0 163.37 -36 0 0 -163.37zm215.15 166.14c-19.75,0 -37.57,-4.29 -53.44,-12.87 -15.87,-8.59 -28.33,-20.49 -37.38,-35.72 -9.05,-15.23 -13.57,-32.26 -13.57,-51.09 0,-18.83 4.52,-35.86 13.57,-51.09 9.05,-15.23 21.51,-27.14 37.38,-35.72 15.87,-8.58 33.69,-12.88 53.44,-12.88 19.75,0 37.57,4.3 53.44,12.88 15.87,8.58 28.33,20.44 37.38,35.58 9.05,15.14 13.57,32.21 13.57,51.23 0,19.01 -4.52,36.09 -13.57,51.23 -9.05,15.13 -21.51,26.99 -37.38,35.58 -15.87,8.58 -33.69,12.87 -53.44,12.87zm0 -31.57c12.92,0 24.55,-2.9 34.89,-8.72 10.34,-5.81 18.46,-13.93 24.37,-24.37 5.91,-10.43 8.86,-22.11 8.86,-35.03 0,-12.92 -2.95,-24.6 -8.86,-35.03 -5.9,-10.43 -14.03,-18.55 -24.37,-24.37 -10.34,-5.81 -21.97,-8.72 -34.89,-8.72 -12.92,0 -24.55,2.91 -34.89,8.72 -10.34,5.81 -18.46,13.94 -24.37,24.37 -5.91,10.43 -8.86,22.11 -8.86,35.03 0,12.92 2.95,24.6 8.86,35.03 5.9,10.43 14.03,18.55 24.37,24.37 10.34,5.82 21.97,8.72 34.89,8.72zm274.96 -70.33l34.06 0 0 77.25c-9.97,7.94 -21.6,14.03 -34.89,18.27 -13.29,4.25 -26.95,6.37 -40.98,6.37 -19.75,0 -37.57,-4.29 -53.44,-12.87 -15.87,-8.59 -28.33,-20.45 -37.38,-35.58 -9.05,-15.14 -13.57,-32.22 -13.57,-51.23 0,-19.02 4.52,-36.09 13.57,-51.23 9.05,-15.14 21.55,-27 37.52,-35.58 15.97,-8.58 33.92,-12.88 53.86,-12.88 16.24,0 31.01,2.68 44.3,8.03 13.29,5.36 24.46,13.2 33.5,23.53l-22.71 22.15c-14.76,-14.76 -32.58,-22.15 -53.44,-22.15 -13.66,0 -25.8,2.87 -36.41,8.59 -10.61,5.72 -18.92,13.75 -24.92,24.09 -6,10.34 -9,22.15 -9,35.44 0,12.92 2.99,24.55 9,34.89 6,10.34 14.31,18.46 24.92,24.37 10.61,5.9 22.66,8.86 36.14,8.86 15.14,0 28.43,-3.32 39.88,-9.97l0 -60.36zm208.22 99.13l-39.59 -56.76c-1.66,0.19 -4.16,0.28 -7.48,0.28l-43.75 0 0 56.49 -35.99 0 0 -193.83 79.74 0c16.8,0 31.43,2.77 43.89,8.3 12.46,5.54 22.01,13.47 28.66,23.81 6.65,10.34 9.97,22.62 9.97,36.83 0,14.58 -3.56,27.13 -10.66,37.66 -7.1,10.52 -17.31,18.36 -30.6,23.53l44.58 63.69 -38.77 0zm-0.83 -124.88c0,-12.37 -4.07,-21.87 -12.18,-28.52 -8.12,-6.65 -20.03,-9.97 -35.72,-9.97l-42.09 0 0 77.25 42.09 0c15.69,0 27.6,-3.37 35.72,-10.11 8.12,-6.74 12.18,-16.29 12.18,-28.66zm202.14 80.02l-96.91 0 -19.11 44.86 -37.11 0 87.23 -193.83 35.44 0 87.51 193.83 -37.66 0 -19.38 -44.86zm-11.91 -28.24l-36.55 -84.73 -36.27 84.73 72.83 0zm173.33 -120.72c16.8,0 31.43,2.77 43.89,8.3 12.46,5.54 22.01,13.47 28.66,23.81 6.65,10.34 9.97,22.62 9.97,36.83 0,14.03 -3.32,26.26 -9.97,36.69 -6.65,10.43 -16.2,18.41 -28.66,23.95 -12.46,5.54 -27.09,8.31 -43.89,8.31l-43.75 0 0 55.93 -35.99 0 0 -193.83 79.74 0zm-1.66 107.43c15.69,0 27.6,-3.32 35.72,-9.96 8.12,-6.65 12.18,-16.16 12.18,-28.52 0,-12.37 -4.07,-21.87 -12.18,-28.52 -8.12,-6.65 -20.03,-9.97 -35.72,-9.97l-42.09 0 0 76.97 42.09 0zm292.41 -107.43l0 193.83 -36 0 0 -83.07 -100.24 0 0 83.07 -35.99 0 0 -193.83 35.99 0 0 80.02 100.24 0 0 -80.02 36 0zm135.68 125.43l0 68.39 -35.99 0 0 -67.84 -76.15 -125.99 38.49 0 56.76 94.42 57.31 -94.42 35.44 0 -75.87 125.43zm175.84 -137.07l31.84 0 0 259.18 -31.84 0 0 -259.18zm250.04 208.23c-19.56,0 -37.24,-4.29 -53.02,-12.87 -15.78,-8.59 -28.15,-20.45 -37.11,-35.58 -8.95,-15.14 -13.43,-32.22 -13.43,-51.23 0,-19.02 4.52,-36.09 13.57,-51.23 9.05,-15.14 21.46,-27 37.24,-35.58 15.78,-8.58 33.46,-12.88 53.03,-12.88 15.87,0 30.37,2.77 43.47,8.31 13.11,5.54 24.18,13.57 33.23,24.09l-23.26 21.87c-14.03,-15.14 -31.29,-22.71 -51.78,-22.71 -13.29,0 -25.2,2.91 -35.72,8.72 -10.52,5.81 -18.74,13.89 -24.64,24.23 -5.91,10.34 -8.86,22.06 -8.86,35.17 0,13.11 2.95,24.83 8.86,35.17 5.9,10.34 14.12,18.41 24.64,24.22 10.52,5.82 22.43,8.72 35.72,8.72 20.49,0 37.75,-7.66 51.78,-22.98l23.26 22.15c-9.05,10.52 -20.17,18.56 -33.37,24.09 -13.2,5.54 -27.73,8.3 -43.61,8.3zm111.59 -196.6l35.99 0 0 193.83 -35.99 0 0 -193.83zm260.56 0l0 193.83 -29.63 0 -106.88 -131.25 0 131.25 -35.72 0 0 -193.83 29.62 0 106.88 131.25 0 -131.25 35.72 0zm197.43 163.65l0 30.18 -145.37 0 0 -193.83 141.5 0 0 30.18 -105.5 0 0 50.4 93.6 0 0 29.63 -93.6 0 0 53.44 109.38 0zm218.19 30.18l-0.28 -128.48 -63.69 106.33 -16.05 0 -63.69 -104.67 0 126.82 -34.34 0 0 -193.83 29.62 0 76.98 128.48 75.59 -128.48 29.62 0 0.28 193.83 -34.06 0zm212.11 -44.86l-96.91 0 -19.11 44.86 -37.11 0 87.23 -193.83 35.44 0 87.51 193.83 -37.66 0 -19.38 -44.86zm-11.91 -28.24l-36.55 -84.73 -36.27 84.73 72.83 0zm123.22 -90.27l-64.24 0 0 -30.46 164.47 0 0 30.46 -64.24 0 0 163.37 -36 0 0 -163.37zm215.15 166.14c-19.75,0 -37.57,-4.29 -53.44,-12.87 -15.87,-8.59 -28.33,-20.49 -37.38,-35.72 -9.05,-15.23 -13.57,-32.26 -13.57,-51.09 0,-18.83 4.52,-35.86 13.57,-51.09 9.05,-15.23 21.51,-27.14 37.38,-35.72 15.87,-8.58 33.69,-12.88 53.44,-12.88 19.75,0 37.57,4.3 53.44,12.88 15.87,8.58 28.33,20.44 37.38,35.58 9.05,15.14 13.57,32.21 13.57,51.23 0,19.01 -4.52,36.09 -13.57,51.23 -9.05,15.13 -21.51,26.99 -37.38,35.58 -15.87,8.58 -33.69,12.87 -53.44,12.87zm0 -31.57c12.92,0 24.55,-2.9 34.89,-8.72 10.34,-5.81 18.46,-13.93 24.37,-24.37 5.91,-10.43 8.86,-22.11 8.86,-35.03 0,-12.92 -2.95,-24.6 -8.86,-35.03 -5.9,-10.43 -14.03,-18.55 -24.37,-24.37 -10.34,-5.81 -21.97,-8.72 -34.89,-8.72 -12.92,0 -24.55,2.91 -34.89,8.72 -10.34,5.81 -18.46,13.94 -24.37,24.37 -5.91,10.43 -8.86,22.11 -8.86,35.03 0,12.92 2.95,24.6 8.86,35.03 5.9,10.43 14.03,18.55 24.37,24.37 10.34,5.82 21.97,8.72 34.89,8.72zm274.96 -70.33l34.06 0 0 77.25c-9.97,7.94 -21.6,14.03 -34.89,18.27 -13.29,4.25 -26.95,6.37 -40.98,6.37 -19.75,0 -37.57,-4.29 -53.44,-12.87 -15.87,-8.59 -28.33,-20.45 -37.38,-35.58 -9.05,-15.14 -13.57,-32.22 -13.57,-51.23 0,-19.02 4.52,-36.09 13.57,-51.23 9.05,-15.14 21.55,-27 37.52,-35.58 15.97,-8.58 33.92,-12.88 53.86,-12.88 16.24,0 31.01,2.68 44.3,8.03 13.29,5.36 24.46,13.2 33.5,23.53l-22.71 22.15c-14.76,-14.76 -32.58,-22.15 -53.44,-22.15 -13.66,0 -25.8,2.87 -36.41,8.59 -10.61,5.72 -18.92,13.75 -24.92,24.09 -6,10.34 -9,22.15 -9,35.44 0,12.92 2.99,24.55 9,34.89 6,10.34 14.31,18.46 24.92,24.37 10.61,5.9 22.66,8.86 36.14,8.86 15.14,0 28.43,-3.32 39.88,-9.97l0 -60.36zm208.22 99.13l-39.59 -56.76c-1.66,0.19 -4.16,0.28 -7.48,0.28l-43.75 0 0 56.49 -35.99 0 0 -193.83 79.74 0c16.8,0 31.43,2.77 43.89,8.3 12.46,5.54 22.01,13.47 28.66,23.81 6.65,10.34 9.97,22.62 9.97,36.83 0,14.58 -3.56,27.13 -10.66,37.66 -7.1,10.52 -17.31,18.36 -30.6,23.53l44.58 63.69 -38.77 0zm-0.83 -124.88c0,-12.37 -4.07,-21.87 -12.18,-28.52 -8.12,-6.65 -20.03,-9.97 -35.72,-9.97l-42.09 0 0 77.25 42.09 0c15.69,0 27.6,-3.37 35.72,-10.11 8.12,-6.74 12.18,-16.29 12.18,-28.66zm202.14 80.02l-96.91 0 -19.11 44.86 -37.11 0 87.23 -193.83 35.44 0 87.51 193.83 -37.66 0 -19.38 -44.86zm-11.91 -28.24l-36.55 -84.73 -36.27 84.73 72.83 0zm173.33 -120.72c16.8,0 31.43,2.77 43.89,8.3 12.46,5.54 22.01,13.47 28.66,23.81 6.65,10.34 9.97,22.62 9.97,36.83 0,14.03 -3.32,26.26 -9.97,36.69 -6.65,10.43 -16.2,18.41 -28.66,23.95 -12.46,5.54 -27.09,8.31 -43.89,8.31l-43.75 0 0 55.93 -35.99 0 0 -193.83 79.74 0zm-1.66 107.43c15.69,0 27.6,-3.32 35.72,-9.96 8.12,-6.65 12.18,-16.16 12.18,-28.52 0,-12.37 -4.07,-21.87 -12.18,-28.52 -8.12,-6.65 -20.03,-9.97 -35.72,-9.97l-42.09 0 0 76.97 42.09 0zm292.41 -107.43l0 193.83 -36 0 0 -83.07 -100.24 0 0 83.07 -35.99 0 0 -193.83 35.99 0 0 80.02 100.24 0 0 -80.02 36 0zm135.68 125.43l0 68.39 -35.99 0 0 -67.84 -76.15 -125.99 38.49 0 56.76 94.42 57.31 -94.42 35.44 0 -75.87 125.43zm175.84 -137.07l31.84 0 0 259.18 -31.84 0 0 -259.18zm160.32 11.63l84.73 0c20.67,0 39.04,4.01 55.1,12.04 16.06,8.03 28.52,19.38 37.38,34.06 8.87,14.68 13.29,31.62 13.29,50.82 0,19.2 -4.43,36.14 -13.29,50.81 -8.86,14.67 -21.32,26.03 -37.38,34.06 -16.06,8.03 -34.43,12.05 -55.1,12.05l-84.73 0 0 -193.83zm83.07 163.37c14.22,0 26.72,-2.72 37.52,-8.17 10.8,-5.45 19.11,-13.2 24.92,-23.26 5.81,-10.06 8.72,-21.73 8.72,-35.03 0,-13.29 -2.91,-24.97 -8.72,-35.03 -5.81,-10.06 -14.13,-17.81 -24.92,-23.26 -10.8,-5.45 -23.31,-8.17 -37.52,-8.17l-47.07 0 0 132.91 47.07 0zm272.47 30.46l-39.59 -56.76c-1.66,0.19 -4.16,0.28 -7.48,0.28l-43.75 0 0 56.49 -35.99 0 0 -193.83 79.74 0c16.8,0 31.43,2.77 43.89,8.3 12.46,5.54 22.01,13.47 28.66,23.81 6.65,10.34 9.97,22.62 9.97,36.83 0,14.58 -3.56,27.13 -10.66,37.66 -7.1,10.52 -17.31,18.36 -30.6,23.53l44.58 63.69 -38.77 0zm-0.83 -124.88c0,-12.37 -4.07,-21.87 -12.18,-28.52 -8.12,-6.65 -20.03,-9.97 -35.72,-9.97l-42.09 0 0 77.25 42.09 0c15.69,0 27.6,-3.37 35.72,-10.11 8.12,-6.74 12.18,-16.29 12.18,-28.66zm166.97 127.65c-19.75,0 -37.57,-4.29 -53.44,-12.87 -15.87,-8.59 -28.33,-20.49 -37.38,-35.72 -9.05,-15.23 -13.57,-32.26 -13.57,-51.09 0,-18.83 4.52,-35.86 13.57,-51.09 9.05,-15.23 21.51,-27.14 37.38,-35.72 15.87,-8.58 33.69,-12.88 53.44,-12.88 19.75,0 37.57,4.3 53.44,12.88 15.87,8.58 28.33,20.44 37.38,35.58 9.05,15.14 13.57,32.21 13.57,51.23 0,19.01 -4.52,36.09 -13.57,51.23 -9.05,15.13 -21.51,26.99 -37.38,35.58 -15.87,8.58 -33.69,12.87 -53.44,12.87zm0 -31.57c12.92,0 24.55,-2.9 34.89,-8.72 10.34,-5.81 18.46,-13.93 24.37,-24.37 5.91,-10.43 8.86,-22.11 8.86,-35.03 0,-12.92 -2.95,-24.6 -8.86,-35.03 -5.9,-10.43 -14.03,-18.55 -24.37,-24.37 -10.34,-5.81 -21.97,-8.72 -34.89,-8.72 -12.92,0 -24.55,2.91 -34.89,8.72 -10.34,5.81 -18.46,13.94 -24.37,24.37 -5.91,10.43 -8.86,22.11 -8.86,35.03 0,12.92 2.95,24.6 8.86,35.03 5.9,10.43 14.03,18.55 24.37,24.37 10.34,5.82 21.97,8.72 34.89,8.72zm314.84 -165.03l0 193.83 -29.63 0 -106.88 -131.25 0 131.25 -35.72 0 0 -193.83 29.62 0 106.88 131.25 0 -131.25 35.72 0zm197.43 163.65l0 30.18 -145.37 0 0 -193.83 141.5 0 0 30.18 -105.5 0 0 50.4 93.6 0 0 29.63 -93.6 0 0 53.44 109.38 0z"/>
 </g>
</svg>
